<svg width="169" height="40" viewBox="0 0 169 40" fill="none" xmlns="http://www.w3.org/2000/svg">
<path d="M6.20312 31H0.597656V2.99219H6.20312V16.9961L16.6328 2.99219H23L14.1523 14.8086L23 31H16.6328L10.4805 19.6719L6.20312 25.3945V31ZM31.5156 4.39844C31.5156 4.89323 31.418 5.35547 31.2227 5.78516C31.0404 6.21484 30.7865 6.59245 30.4609 6.91797C30.1354 7.23047 29.7513 7.48438 29.3086 7.67969C28.8789 7.86198 28.4167 7.95312 27.9219 7.95312C27.4271 7.95312 26.9583 7.86198 26.5156 7.67969C26.0859 7.48438 25.7083 7.23047 25.3828 6.91797C25.0703 6.59245 24.8164 6.21484 24.6211 5.78516C24.4388 5.35547 24.3477 4.89323 24.3477 4.39844C24.3477 3.91667 24.4388 3.46094 24.6211 3.03125C24.8164 2.58854 25.0703 2.21094 25.3828 1.89844C25.7083 1.57292 26.0859 1.31901 26.5156 1.13672C26.9583 0.941406 27.4271 0.84375 27.9219 0.84375C28.4167 0.84375 28.8789 0.941406 29.3086 1.13672C29.7513 1.31901 30.1354 1.57292 30.4609 1.89844C30.7865 2.21094 31.0404 2.58854 31.2227 3.03125C31.418 3.46094 31.5156 3.91667 31.5156 4.39844ZM30.5977 31H25.2266V10.082H30.5977V31ZM45.168 31C43.8789 31 42.668 30.7591 41.5352 30.2773C40.4023 29.7826 39.4062 29.112 38.5469 28.2656C37.7005 27.4062 37.0299 26.4102 36.5352 25.2773C36.0534 24.1445 35.8125 22.9336 35.8125 21.6445V15.4336H33.2148V10.1211H35.8125V1.76172H41.125V10.1211H49.2109V15.4336H41.125V21.6445C41.125 22.2044 41.2292 22.7318 41.4375 23.2266C41.6458 23.7083 41.9323 24.1315 42.2969 24.4961C42.6615 24.8607 43.0911 25.1536 43.5859 25.375C44.0807 25.5833 44.6081 25.6875 45.168 25.6875H49.2109V31H45.168ZM62.707 31C61.418 31 60.207 30.7591 59.0742 30.2773C57.9414 29.7826 56.9453 29.112 56.0859 28.2656C55.2396 27.4062 54.569 26.4102 54.0742 25.2773C53.5924 24.1445 53.3516 22.9336 53.3516 21.6445V15.4336H50.7539V10.1211H53.3516V1.76172H58.6641V10.1211H66.75V15.4336H58.6641V21.6445C58.6641 22.2044 58.7682 22.7318 58.9766 23.2266C59.1849 23.7083 59.4714 24.1315 59.8359 24.4961C60.2005 24.8607 60.6302 25.1536 61.125 25.375C61.6198 25.5833 62.1471 25.6875 62.707 25.6875H66.75V31H62.707ZM74.7969 38.9688V33.5977L77.7656 33.6367C78.2865 33.6367 78.7878 33.5521 79.2695 33.3828C79.7513 33.2135 80.194 32.9792 80.5977 32.6797C81.0143 32.3802 81.3789 32.0221 81.6914 31.6055C82.0039 31.2018 82.2578 30.7591 82.4531 30.2773C81.8672 30.5247 81.2682 30.7721 80.6562 31.0195C80.0573 31.2669 79.4518 31.3906 78.8398 31.3906C77.5508 31.3906 76.3398 31.1628 75.207 30.707C74.0742 30.2513 73.0781 29.6068 72.2188 28.7734C71.3724 27.9271 70.7018 26.9049 70.207 25.707C69.7253 24.4961 69.4844 23.1419 69.4844 21.6445V10.082H74.7969V21.6445C74.7969 22.3867 74.901 23.0378 75.1094 23.5977C75.3307 24.1445 75.6237 24.6068 75.9883 24.9844C76.3529 25.349 76.776 25.6224 77.2578 25.8047C77.7526 25.987 78.2799 26.0781 78.8398 26.0781C79.3867 26.0781 79.901 25.9544 80.3828 25.707C80.8776 25.4466 81.3073 25.1081 81.6719 24.6914C82.0365 24.2747 82.3229 23.806 82.5312 23.2852C82.7396 22.7513 82.8438 22.2044 82.8438 21.6445V10.082H88.2148V28.3633C88.2018 29.8346 87.9154 31.2148 87.3555 32.5039C86.7956 33.793 86.0273 34.9193 85.0508 35.8828C84.0872 36.8464 82.9609 37.6081 81.6719 38.168C80.3828 38.7279 79.0026 39.0078 77.5312 39.0078L74.7969 38.9688ZM115.227 28.1289C113.924 29.2487 112.466 30.1081 110.852 30.707C109.237 31.306 107.564 31.6055 105.832 31.6055C104.504 31.6055 103.221 31.4297 101.984 31.0781C100.76 30.7396 99.6081 30.2578 98.5273 29.6328C97.4596 28.9948 96.4831 28.2331 95.5977 27.3477C94.7122 26.4622 93.9505 25.4857 93.3125 24.418C92.6875 23.3372 92.1992 22.1849 91.8477 20.9609C91.5091 19.724 91.3398 18.4414 91.3398 17.1133C91.3398 15.7852 91.5091 14.5026 91.8477 13.2656C92.1992 12.0286 92.6875 10.8763 93.3125 9.80859C93.9505 8.72786 94.7122 7.74479 95.5977 6.85938C96.4831 5.97396 97.4596 5.21875 98.5273 4.59375C99.6081 3.95573 100.76 3.46745 101.984 3.12891C103.221 2.77734 104.504 2.60156 105.832 2.60156C107.564 2.60156 109.237 2.90104 110.852 3.5C112.466 4.08594 113.924 4.94531 115.227 6.07812L112.258 10.9609C111.438 10.0755 110.467 9.39844 109.348 8.92969C108.228 8.44792 107.056 8.20703 105.832 8.20703C104.595 8.20703 103.436 8.44141 102.355 8.91016C101.275 9.37891 100.331 10.0169 99.5234 10.8242C98.7161 11.6185 98.0781 12.5625 97.6094 13.6562C97.1406 14.737 96.9062 15.8893 96.9062 17.1133C96.9062 18.3372 97.1406 19.4896 97.6094 20.5703C98.0781 21.638 98.7161 22.5755 99.5234 23.3828C100.331 24.1901 101.275 24.8281 102.355 25.2969C103.436 25.7656 104.595 26 105.832 26C107.056 26 108.228 25.7656 109.348 25.2969C110.467 24.8151 111.438 24.1315 112.258 23.2461L115.227 28.1289ZM137.434 31H136.145L134.074 28.1289C133.566 28.5846 133.026 29.0143 132.453 29.418C131.893 29.8086 131.301 30.1536 130.676 30.4531C130.051 30.7396 129.406 30.9674 128.742 31.1367C128.091 31.306 127.427 31.3906 126.75 31.3906C125.279 31.3906 123.892 31.1432 122.59 30.6484C121.301 30.1536 120.168 29.4375 119.191 28.5C118.228 27.5495 117.466 26.3906 116.906 25.0234C116.346 23.6562 116.066 22.1003 116.066 20.3555C116.066 18.7279 116.346 17.237 116.906 15.8828C117.466 14.5156 118.228 13.3438 119.191 12.3672C120.168 11.3906 121.301 10.6354 122.59 10.1016C123.892 9.55469 125.279 9.28125 126.75 9.28125C127.427 9.28125 128.098 9.36589 128.762 9.53516C129.426 9.70443 130.07 9.9388 130.695 10.2383C131.32 10.5378 131.913 10.8893 132.473 11.293C133.046 11.6966 133.579 12.1328 134.074 12.6016L136.145 10.1211H137.434V31ZM132.062 20.3555C132.062 19.6263 131.919 18.9232 131.633 18.2461C131.359 17.556 130.982 16.9505 130.5 16.4297C130.018 15.8958 129.452 15.4727 128.801 15.1602C128.163 14.8346 127.479 14.6719 126.75 14.6719C126.021 14.6719 125.331 14.7956 124.68 15.043C124.042 15.2904 123.482 15.6549 123 16.1367C122.531 16.6185 122.16 17.2174 121.887 17.9336C121.613 18.6367 121.477 19.444 121.477 20.3555C121.477 21.2669 121.613 22.0807 121.887 22.7969C122.16 23.5 122.531 24.0924 123 24.5742C123.482 25.056 124.042 25.4206 124.68 25.668C125.331 25.9154 126.021 26.0391 126.75 26.0391C127.479 26.0391 128.163 25.8828 128.801 25.5703C129.452 25.2448 130.018 24.8216 130.5 24.3008C130.982 23.7669 131.359 23.1615 131.633 22.4844C131.919 21.7943 132.062 21.0846 132.062 20.3555ZM168.117 31H162.805V17.7188C162.805 17.3542 162.733 17.0091 162.59 16.6836C162.46 16.3581 162.271 16.0716 162.023 15.8242C161.776 15.5768 161.49 15.388 161.164 15.2578C160.839 15.1146 160.493 15.043 160.129 15.043C159.764 15.043 159.419 15.1146 159.094 15.2578C158.781 15.388 158.501 15.5768 158.254 15.8242C158.02 16.0716 157.831 16.3581 157.688 16.6836C157.557 17.0091 157.492 17.3542 157.492 17.7188V31H152.16V17.7188C152.16 17.3542 152.089 17.0091 151.945 16.6836C151.815 16.3581 151.626 16.0716 151.379 15.8242C151.132 15.5768 150.845 15.388 150.52 15.2578C150.194 15.1146 149.849 15.043 149.484 15.043C149.12 15.043 148.775 15.1146 148.449 15.2578C148.137 15.388 147.857 15.5768 147.609 15.8242C147.375 16.0716 147.186 16.3581 147.043 16.6836C146.913 17.0091 146.848 17.3542 146.848 17.7188V31H141.516V10.082H142.805L144.25 11.6836C144.992 11.0586 145.806 10.5768 146.691 10.2383C147.59 9.88672 148.521 9.71094 149.484 9.71094C150.461 9.71094 151.411 9.89323 152.336 10.2578C153.273 10.6224 154.094 11.2539 154.797 12.1523C155.122 11.7096 155.493 11.332 155.91 11.0195C156.327 10.707 156.763 10.4531 157.219 10.2578C157.688 10.0625 158.169 9.92578 158.664 9.84766C159.159 9.75651 159.647 9.71094 160.129 9.71094C161.236 9.71094 162.271 9.91927 163.234 10.3359C164.211 10.7526 165.057 11.3255 165.773 12.0547C166.503 12.7708 167.076 13.6172 167.492 14.5938C167.909 15.5703 168.117 16.612 168.117 17.7188V31Z" fill="black"/>
</svg>
