<svg width="296" height="53" viewBox="0 0 296 53" fill="none" xmlns="http://www.w3.org/2000/svg">
<path d="M0 0H296V53H0V0Z" fill="url(#paint0_linear_112_182)"/>
<path d="M32.28 38L29 28.64H20.68L17.4 38H13.6L22.84 11.44H26.84L36.08 38H32.28ZM24.84 16.6L21.8 25.28H27.84L24.84 16.6Z" fill="white"/>
<path d="M44.8828 21.6V38H41.4828V21.6H38.4828V18H41.4828V11.4H44.8828V18H47.8828V21.6H44.8828Z" fill="white"/>
<path d="M66.4892 38V34.96C65.6358 35.9467 64.6492 36.7333 63.5292 37.32C62.4092 37.9067 61.2225 38.2 59.9692 38.2C58.5825 38.2 57.2758 37.9467 56.0492 37.44C54.8492 36.9333 53.7825 36.2133 52.8492 35.28C51.9158 34.3733 51.1825 33.3067 50.6492 32.08C50.1425 30.8267 49.8892 29.52 49.8892 28.16C49.8892 26.8 50.1425 25.5067 50.6492 24.28C51.1825 23.0267 51.9158 21.9333 52.8492 21C53.7825 20.0667 54.8492 19.3467 56.0492 18.84C57.2758 18.3333 58.5825 18.08 59.9692 18.08C61.2492 18.08 62.4492 18.3467 63.5692 18.88C64.7158 19.4133 65.6892 20.16 66.4892 21.12V18.48H70.0892V38H66.4892ZM59.9692 21.64C59.0892 21.64 58.2358 21.8133 57.4092 22.16C56.6092 22.48 55.9158 22.9333 55.3292 23.52C54.7425 24.1067 54.2758 24.8133 53.9292 25.64C53.6092 26.44 53.4492 27.28 53.4492 28.16C53.4492 29.04 53.6092 29.88 53.9292 30.68C54.2758 31.48 54.7425 32.1733 55.3292 32.76C55.9158 33.3467 56.6092 33.8133 57.4092 34.16C58.2358 34.48 59.0892 34.64 59.9692 34.64C60.8492 34.64 61.6892 34.48 62.4892 34.16C63.2892 33.8133 63.9825 33.3467 64.5692 32.76C65.1558 32.1733 65.6092 31.48 65.9292 30.68C66.2758 29.88 66.4492 29.04 66.4492 28.16C66.4492 27.28 66.2758 26.44 65.9292 25.64C65.6092 24.8133 65.1558 24.1067 64.5692 23.52C63.9825 22.9333 63.2892 22.48 62.4892 22.16C61.6892 21.8133 60.8492 21.64 59.9692 21.64Z" fill="white"/>
<path d="M74.0781 38V11.4H77.2781V38H74.0781Z" fill="white"/>
<path d="M83.1056 15.12C82.599 15.12 82.159 14.9467 81.7856 14.6C81.439 14.2267 81.2656 13.7867 81.2656 13.28C81.2656 12.7733 81.439 12.3467 81.7856 12C82.159 11.6267 82.599 11.44 83.1056 11.44C83.6123 11.44 84.039 11.6267 84.3856 12C84.759 12.3467 84.9456 12.7733 84.9456 13.28C84.9456 13.7867 84.759 14.2267 84.3856 14.6C84.039 14.9467 83.6123 15.12 83.1056 15.12ZM81.4656 38V18H84.8256V38H81.4656Z" fill="white"/>
<path d="M103.95 38V34.96C103.097 35.9467 102.11 36.7333 100.99 37.32C99.87 37.9067 98.6833 38.2 97.43 38.2C96.0433 38.2 94.7367 37.9467 93.51 37.44C92.31 36.9333 91.2433 36.2133 90.31 35.28C89.3767 34.3733 88.6433 33.3067 88.11 32.08C87.6033 30.8267 87.35 29.52 87.35 28.16C87.35 26.8 87.6033 25.5067 88.11 24.28C88.6433 23.0267 89.3767 21.9333 90.31 21C91.2433 20.0667 92.31 19.3467 93.51 18.84C94.7367 18.3333 96.0433 18.08 97.43 18.08C98.71 18.08 99.91 18.3467 101.03 18.88C102.177 19.4133 103.15 20.16 103.95 21.12V18.48H107.55V38H103.95ZM97.43 21.64C96.55 21.64 95.6967 21.8133 94.87 22.16C94.07 22.48 93.3767 22.9333 92.79 23.52C92.2033 24.1067 91.7367 24.8133 91.39 25.64C91.07 26.44 90.91 27.28 90.91 28.16C90.91 29.04 91.07 29.88 91.39 30.68C91.7367 31.48 92.2033 32.1733 92.79 32.76C93.3767 33.3467 94.07 33.8133 94.87 34.16C95.6967 34.48 96.55 34.64 97.43 34.64C98.31 34.64 99.15 34.48 99.95 34.16C100.75 33.8133 101.443 33.3467 102.03 32.76C102.617 32.1733 103.07 31.48 103.39 30.68C103.737 29.88 103.91 29.04 103.91 28.16C103.91 27.28 103.737 26.44 103.39 25.64C103.07 24.8133 102.617 24.1067 102.03 23.52C101.443 22.9333 100.75 22.48 99.95 22.16C99.15 21.8133 98.31 21.64 97.43 21.64Z" fill="white"/>
<path d="M129.547 38V11.4H132.987V34.4H140.987V38H129.547Z" fill="white"/>
<path d="M152.704 38.2C151.344 38.2 150.051 37.9333 148.824 37.4C147.598 36.8667 146.518 36.1333 145.584 35.2C144.651 34.2667 143.918 33.1867 143.384 31.96C142.851 30.7333 142.584 29.44 142.584 28.08C142.584 26.6933 142.851 25.3733 143.384 24.12C143.918 22.8667 144.651 21.7733 145.584 20.84C146.518 19.9067 147.598 19.1867 148.824 18.68C150.051 18.1467 151.344 17.88 152.704 17.88C154.091 17.88 155.411 18.1467 156.664 18.68C157.918 19.1867 159.011 19.9067 159.944 20.84C160.878 21.7733 161.598 22.8667 162.104 24.12C162.638 25.3733 162.904 26.6933 162.904 28.08C162.904 29.44 162.638 30.7333 162.104 31.96C161.598 33.1867 160.878 34.2667 159.944 35.2C159.011 36.1333 157.918 36.8667 156.664 37.4C155.411 37.9333 154.091 38.2 152.704 38.2ZM152.704 21.44C150.918 21.44 149.384 22.08 148.104 23.36C147.491 23.9733 147.011 24.6933 146.664 25.52C146.318 26.3467 146.144 27.2 146.144 28.08C146.144 28.96 146.318 29.8 146.664 30.6C147.011 31.4 147.491 32.1067 148.104 32.72C148.718 33.3333 149.411 33.8133 150.184 34.16C150.984 34.5067 151.824 34.68 152.704 34.68C153.584 34.68 154.438 34.5067 155.264 34.16C156.091 33.8133 156.798 33.3333 157.384 32.72C157.971 32.1067 158.438 31.4 158.784 30.6C159.131 29.8 159.304 28.96 159.304 28.08C159.304 27.2 159.131 26.3467 158.784 25.52C158.438 24.6933 157.971 23.9733 157.384 23.36C156.798 22.7467 156.091 22.28 155.264 21.96C154.464 21.6133 153.611 21.44 152.704 21.44Z" fill="white"/>
<path d="M178.5 37.88V36.2C177.967 36.76 177.287 37.2267 176.46 37.6C175.66 37.9733 174.86 38.16 174.06 38.16C172.993 38.16 171.967 37.96 170.98 37.56C170.02 37.1333 169.167 36.5467 168.42 35.8C167.7 35.0533 167.127 34.2 166.7 33.24C166.3 32.2533 166.1 31.2133 166.1 30.12V18H169.62V30.12C169.62 31.3467 170.06 32.4 170.94 33.28C171.82 34.16 172.86 34.6 174.06 34.6C174.62 34.6 175.18 34.48 175.74 34.24C176.3 34 176.78 33.68 177.18 33.28C178.06 32.4 178.5 31.3467 178.5 30.12V18H181.98V37.88H178.5Z" fill="white"/>
<path d="M194.912 21.84C194.272 21.5467 193.699 21.4 193.192 21.4C192.126 21.4 191.246 21.7733 190.552 22.52C189.806 23.32 189.432 24.24 189.432 25.28V38H185.992V25.28C185.992 23.84 186.352 22.52 187.072 21.32C187.819 20.12 188.832 19.1867 190.112 18.52C191.072 18.0667 192.099 17.84 193.192 17.84C194.072 17.84 194.912 18 195.712 18.32C196.512 18.64 197.352 19.16 198.232 19.88L194.912 21.84Z" fill="white"/>
<path d="M201.698 29.52C201.698 30.16 201.924 30.8267 202.378 31.52C202.858 32.2133 203.404 32.8 204.018 33.28C205.138 34.16 206.444 34.6 207.938 34.6C210.311 34.6 212.244 33.4533 213.738 31.16L216.778 32.96C215.738 34.64 214.458 35.9333 212.938 36.84C211.418 37.7467 209.751 38.2 207.938 38.2C206.578 38.2 205.284 37.9467 204.058 37.44C202.831 36.9067 201.751 36.1733 200.818 35.24C199.884 34.3067 199.151 33.2267 198.618 32C198.111 30.7733 197.858 29.48 197.858 28.12C197.858 26.76 198.111 25.4667 198.618 24.24C199.151 22.9867 199.884 21.8933 200.818 20.96C201.724 20.0267 202.791 19.3067 204.018 18.8C205.271 18.2933 206.578 18.04 207.938 18.04C209.298 18.04 210.591 18.2933 211.818 18.8C213.071 19.3067 214.151 20.0267 215.058 20.96C217.031 22.9867 218.018 25.3333 218.018 28C218.018 28.48 217.978 28.9867 217.898 29.52H201.698ZM207.938 21.32C206.844 21.32 205.818 21.56 204.858 22.04C203.898 22.52 203.124 23.16 202.538 23.96C201.978 24.7333 201.698 25.56 201.698 26.44H214.178C214.178 25.56 213.884 24.7333 213.298 23.96C212.738 23.16 211.978 22.52 211.018 22.04C210.058 21.56 209.031 21.32 207.938 21.32Z" fill="white"/>
<path d="M233.977 38V26C233.977 24.8 233.537 23.76 232.657 22.88C231.804 22.0267 230.764 21.6 229.537 21.6C228.337 21.6 227.297 22.04 226.417 22.92C226.017 23.32 225.697 23.8 225.457 24.36C225.217 24.8933 225.097 25.44 225.097 26V38H221.617V18.48H225.097V20.12C225.604 19.5067 226.271 19 227.097 18.6C227.924 18.2 228.737 18 229.537 18C230.604 18 231.617 18.2133 232.577 18.64C233.564 19.04 234.431 19.6133 235.177 20.36C235.897 21.08 236.457 21.9333 236.857 22.92C237.284 23.88 237.497 24.9067 237.497 26V38H233.977Z" fill="white"/>
<path d="M250.709 34.6C252.576 34.6 254.203 33.8667 255.589 32.4L258.709 34.2C256.709 36.6267 254.323 37.9467 251.549 38.16L251.229 38.92C252.029 39.2133 252.656 39.6667 253.109 40.28C253.589 40.92 253.829 41.6533 253.829 42.48C253.829 43.4933 253.483 44.3733 252.789 45.12C252.469 45.44 252.083 45.6933 251.629 45.88C251.203 46.0933 250.749 46.2 250.269 46.2C249.443 46.2 248.576 45.8267 247.669 45.08L249.229 43.32C249.496 43.5333 249.669 43.6533 249.749 43.68C249.936 43.7867 250.109 43.84 250.269 43.84C250.616 43.84 250.909 43.7067 251.149 43.44C251.416 43.1733 251.549 42.8533 251.549 42.48C251.549 42.1067 251.416 41.7867 251.149 41.52C250.909 41.2533 250.616 41.12 250.269 41.12C250.136 41.12 249.883 41.1867 249.509 41.32L248.709 39.32L249.189 38.08C248.123 37.8933 247.109 37.56 246.149 37.08C245.189 36.5733 244.349 35.96 243.629 35.24C242.723 34.3333 242.003 33.2667 241.469 32.04C240.963 30.7867 240.709 29.48 240.709 28.12C240.709 26.76 240.963 25.4667 241.469 24.24C242.003 22.9867 242.723 21.9067 243.629 21C244.563 20.0667 245.629 19.3467 246.829 18.84C248.056 18.3067 249.349 18.04 250.709 18.04C253.856 18.04 256.523 19.3733 258.709 22.04L255.589 23.84C254.203 22.3733 252.576 21.64 250.709 21.64C249.829 21.64 248.989 21.8133 248.189 22.16C247.416 22.48 246.736 22.9333 246.149 23.52C245.563 24.1067 245.096 24.8 244.749 25.6C244.403 26.4 244.229 27.24 244.229 28.12C244.229 29 244.403 29.84 244.749 30.64C245.096 31.44 245.563 32.1333 246.149 32.72C246.736 33.3067 247.416 33.7733 248.189 34.12C248.989 34.44 249.829 34.6 250.709 34.6Z" fill="white"/>
<path d="M272.04 38.2C270.68 38.2 269.387 37.9333 268.16 37.4C266.934 36.8667 265.854 36.1333 264.92 35.2C263.987 34.2667 263.254 33.1867 262.72 31.96C262.187 30.7333 261.92 29.44 261.92 28.08C261.92 26.6933 262.187 25.3733 262.72 24.12C263.254 22.8667 263.987 21.7733 264.92 20.84C265.854 19.9067 266.934 19.1867 268.16 18.68C269.387 18.1467 270.68 17.88 272.04 17.88C273.427 17.88 274.747 18.1467 276 18.68C277.254 19.1867 278.347 19.9067 279.28 20.84C280.214 21.7733 280.934 22.8667 281.44 24.12C281.974 25.3733 282.24 26.6933 282.24 28.08C282.24 29.44 281.974 30.7333 281.44 31.96C280.934 33.1867 280.214 34.2667 279.28 35.2C278.347 36.1333 277.254 36.8667 276 37.4C274.747 37.9333 273.427 38.2 272.04 38.2ZM272.04 21.44C270.254 21.44 268.72 22.08 267.44 23.36C266.827 23.9733 266.347 24.6933 266 25.52C265.654 26.3467 265.48 27.2 265.48 28.08C265.48 28.96 265.654 29.8 266 30.6C266.347 31.4 266.827 32.1067 267.44 32.72C268.054 33.3333 268.747 33.8133 269.52 34.16C270.32 34.5067 271.16 34.68 272.04 34.68C272.92 34.68 273.774 34.5067 274.6 34.16C275.427 33.8133 276.134 33.3333 276.72 32.72C277.307 32.1067 277.774 31.4 278.12 30.6C278.467 29.8 278.64 28.96 278.64 28.08C278.64 27.2 278.467 26.3467 278.12 25.52C277.774 24.6933 277.307 23.9733 276.72 23.36C276.134 22.7467 275.427 22.28 274.6 21.96C273.8 21.6133 272.947 21.44 272.04 21.44Z" fill="white"/>
<defs>
<linearGradient id="paint0_linear_112_182" x1="148" y1="0" x2="148" y2="53" gradientUnits="userSpaceOnUse">
<stop stop-color="#EAF6DD"/>
<stop offset="1" stop-color="#A5D090"/>
</linearGradient>
</defs>
</svg>
