<svg width="147" height="35" viewBox="0 0 147 35" fill="none" xmlns="http://www.w3.org/2000/svg">
<path d="M5.17773 27H0.272949V2.49316H5.17773V14.7466L14.3037 2.49316H19.875L12.1333 12.8325L19.875 27H14.3037L8.92041 17.0879L5.17773 22.0952V27ZM27.3262 3.72363C27.3262 4.15658 27.2407 4.56104 27.0698 4.93701C26.9103 5.31299 26.6882 5.64339 26.4033 5.92822C26.1185 6.20166 25.7824 6.42383 25.395 6.59473C25.019 6.75423 24.6146 6.83398 24.1816 6.83398C23.7487 6.83398 23.3385 6.75423 22.9512 6.59473C22.5752 6.42383 22.2448 6.20166 21.96 5.92822C21.6865 5.64339 21.4644 5.31299 21.2935 4.93701C21.134 4.56104 21.0542 4.15658 21.0542 3.72363C21.0542 3.30208 21.134 2.90332 21.2935 2.52734C21.4644 2.13997 21.6865 1.80957 21.96 1.53613C22.2448 1.2513 22.5752 1.02913 22.9512 0.869629C23.3385 0.69873 23.7487 0.613281 24.1816 0.613281C24.6146 0.613281 25.019 0.69873 25.395 0.869629C25.7824 1.02913 26.1185 1.2513 26.4033 1.53613C26.6882 1.80957 26.9103 2.13997 27.0698 2.52734C27.2407 2.90332 27.3262 3.30208 27.3262 3.72363ZM26.5229 27H21.8232V8.69678H26.5229V27ZM39.272 27C38.144 27 37.0845 26.7892 36.0933 26.3677C35.1021 25.9347 34.2305 25.348 33.4785 24.6074C32.738 23.8555 32.1512 22.9839 31.7183 21.9927C31.2967 21.0015 31.0859 19.9419 31.0859 18.814V13.3794H28.813V8.73096H31.0859V1.4165H35.7344V8.73096H42.8096V13.3794H35.7344V18.814C35.7344 19.3039 35.8255 19.7653 36.0078 20.1982C36.1901 20.6198 36.4408 20.9901 36.7598 21.3091C37.0788 21.6281 37.4548 21.8844 37.8877 22.0781C38.3206 22.2604 38.7821 22.3516 39.272 22.3516H42.8096V27H39.272ZM54.6187 27C53.4907 27 52.4312 26.7892 51.4399 26.3677C50.4487 25.9347 49.5771 25.348 48.8252 24.6074C48.0846 23.8555 47.4979 22.9839 47.0649 21.9927C46.6434 21.0015 46.4326 19.9419 46.4326 18.814V13.3794H44.1597V8.73096H46.4326V1.4165H51.0811V8.73096H58.1562V13.3794H51.0811V18.814C51.0811 19.3039 51.1722 19.7653 51.3545 20.1982C51.5368 20.6198 51.7874 20.9901 52.1064 21.3091C52.4255 21.6281 52.8014 21.8844 53.2344 22.0781C53.6673 22.2604 54.1287 22.3516 54.6187 22.3516H58.1562V27H54.6187ZM65.1973 33.9727V29.2729L67.7949 29.3071C68.2507 29.3071 68.6893 29.2331 69.1108 29.085C69.5324 28.9368 69.9198 28.7318 70.2729 28.4697C70.6375 28.2077 70.9565 27.8944 71.23 27.5298C71.5034 27.1766 71.7256 26.7892 71.8965 26.3677C71.3838 26.5841 70.8597 26.8006 70.3242 27.0171C69.8001 27.2336 69.2703 27.3418 68.7349 27.3418C67.6069 27.3418 66.5474 27.1424 65.5562 26.7437C64.5649 26.3449 63.6934 25.7809 62.9414 25.0518C62.2008 24.3112 61.6141 23.4168 61.1812 22.3687C60.7596 21.3091 60.5488 20.1242 60.5488 18.814V8.69678H65.1973V18.814C65.1973 19.4634 65.2884 20.033 65.4707 20.5229C65.6644 21.0015 65.9207 21.4059 66.2397 21.7363C66.5588 22.0553 66.929 22.2946 67.3506 22.4541C67.7835 22.6136 68.245 22.6934 68.7349 22.6934C69.2134 22.6934 69.6634 22.5851 70.085 22.3687C70.5179 22.1408 70.8939 21.8446 71.2129 21.48C71.5319 21.1154 71.7826 20.7052 71.9648 20.2495C72.1471 19.7824 72.2383 19.3039 72.2383 18.814V8.69678H76.938V24.6929C76.9266 25.9803 76.6759 27.188 76.186 28.3159C75.6961 29.4438 75.0239 30.4294 74.1694 31.2725C73.3263 32.1156 72.3408 32.7821 71.2129 33.272C70.085 33.7619 68.8773 34.0068 67.5898 34.0068L65.1973 33.9727ZM100.573 24.4878C99.4339 25.4676 98.1579 26.2196 96.7451 26.7437C95.3324 27.2677 93.8683 27.5298 92.353 27.5298C91.1909 27.5298 90.0687 27.376 88.9863 27.0684C87.9154 26.7721 86.9071 26.3506 85.9614 25.8037C85.0272 25.2454 84.1727 24.5789 83.3979 23.8042C82.6232 23.0295 81.9567 22.175 81.3984 21.2407C80.8516 20.2951 80.4243 19.2868 80.1167 18.2158C79.8205 17.1335 79.6724 16.0112 79.6724 14.8491C79.6724 13.687 79.8205 12.5648 80.1167 11.4824C80.4243 10.4001 80.8516 9.39176 81.3984 8.45752C81.9567 7.51188 82.6232 6.65169 83.3979 5.87695C84.1727 5.10221 85.0272 4.44141 85.9614 3.89453C86.9071 3.33626 87.9154 2.90902 88.9863 2.61279C90.0687 2.30518 91.1909 2.15137 92.353 2.15137C93.8683 2.15137 95.3324 2.41341 96.7451 2.9375C98.1579 3.4502 99.4339 4.20215 100.573 5.19336L97.9756 9.46582C97.2578 8.69108 96.409 8.09863 95.4292 7.68848C94.4494 7.26693 93.424 7.05615 92.353 7.05615C91.2707 7.05615 90.2567 7.26123 89.311 7.67139C88.3654 8.08154 87.5394 8.63981 86.833 9.34619C86.1266 10.0412 85.5684 10.8672 85.1582 11.8242C84.748 12.7699 84.543 13.7782 84.543 14.8491C84.543 15.9201 84.748 16.9284 85.1582 17.874C85.5684 18.8083 86.1266 19.6286 86.833 20.335C87.5394 21.0413 88.3654 21.5996 89.311 22.0098C90.2567 22.4199 91.2707 22.625 92.353 22.625C93.424 22.625 94.4494 22.4199 95.4292 22.0098C96.409 21.5882 97.2578 20.9901 97.9756 20.2153L100.573 24.4878ZM120.004 27H118.876L117.065 24.4878C116.621 24.8866 116.148 25.2625 115.646 25.6157C115.157 25.9575 114.638 26.2594 114.091 26.5215C113.544 26.7721 112.98 26.9715 112.399 27.1196C111.83 27.2677 111.249 27.3418 110.656 27.3418C109.369 27.3418 108.155 27.1253 107.016 26.6924C105.888 26.2594 104.897 25.6328 104.042 24.8125C103.199 23.9808 102.533 22.9668 102.043 21.7705C101.553 20.5742 101.308 19.2127 101.308 17.686C101.308 16.2619 101.553 14.9574 102.043 13.7725C102.533 12.5762 103.199 11.5508 104.042 10.6963C104.897 9.8418 105.888 9.18099 107.016 8.71387C108.155 8.23535 109.369 7.99609 110.656 7.99609C111.249 7.99609 111.835 8.07015 112.417 8.21826C112.998 8.36637 113.562 8.57145 114.108 8.8335C114.655 9.09554 115.174 9.40316 115.664 9.75635C116.165 10.1095 116.632 10.4912 117.065 10.9014L118.876 8.73096H120.004V27ZM115.305 17.686C115.305 17.048 115.179 16.4328 114.929 15.8403C114.689 15.2365 114.359 14.7067 113.938 14.251C113.516 13.7839 113.02 13.4136 112.451 13.1401C111.892 12.8553 111.294 12.7129 110.656 12.7129C110.018 12.7129 109.414 12.8211 108.845 13.0376C108.286 13.2541 107.797 13.5731 107.375 13.9946C106.965 14.4162 106.64 14.9403 106.401 15.5669C106.162 16.1821 106.042 16.8885 106.042 17.686C106.042 18.4836 106.162 19.1956 106.401 19.8223C106.64 20.4375 106.965 20.9559 107.375 21.3774C107.797 21.799 108.286 22.118 108.845 22.3345C109.414 22.5509 110.018 22.6592 110.656 22.6592C111.294 22.6592 111.892 22.5225 112.451 22.249C113.02 21.9642 113.516 21.5939 113.938 21.1382C114.359 20.6711 114.689 20.1413 114.929 19.5488C115.179 18.945 115.305 18.3241 115.305 17.686ZM146.853 27H142.204V15.3789C142.204 15.0599 142.141 14.758 142.016 14.4731C141.902 14.1883 141.737 13.9377 141.521 13.7212C141.304 13.5047 141.053 13.3395 140.769 13.2256C140.484 13.1003 140.182 13.0376 139.863 13.0376C139.544 13.0376 139.242 13.1003 138.957 13.2256C138.684 13.3395 138.439 13.5047 138.222 13.7212C138.017 13.9377 137.852 14.1883 137.727 14.4731C137.613 14.758 137.556 15.0599 137.556 15.3789V27H132.89V15.3789C132.89 15.0599 132.827 14.758 132.702 14.4731C132.588 14.1883 132.423 13.9377 132.207 13.7212C131.99 13.5047 131.739 13.3395 131.455 13.2256C131.17 13.1003 130.868 13.0376 130.549 13.0376C130.23 13.0376 129.928 13.1003 129.643 13.2256C129.37 13.3395 129.125 13.5047 128.908 13.7212C128.703 13.9377 128.538 14.1883 128.413 14.4731C128.299 14.758 128.242 15.0599 128.242 15.3789V27H123.576V8.69678H124.704L125.969 10.0981C126.618 9.55127 127.33 9.12972 128.105 8.8335C128.891 8.52588 129.706 8.37207 130.549 8.37207C131.403 8.37207 132.235 8.53158 133.044 8.85059C133.864 9.1696 134.582 9.72217 135.197 10.5083C135.482 10.1209 135.807 9.79053 136.171 9.51709C136.536 9.24365 136.918 9.02148 137.316 8.85059C137.727 8.67969 138.148 8.56006 138.581 8.4917C139.014 8.41195 139.441 8.37207 139.863 8.37207C140.831 8.37207 141.737 8.55436 142.58 8.91895C143.435 9.28353 144.175 9.78483 144.802 10.4229C145.44 11.0495 145.941 11.79 146.306 12.6445C146.67 13.499 146.853 14.4105 146.853 15.3789V27Z" fill="#333333"/>
</svg>
